<?xml version="1.0" standalone="no"?>
<!DOCTYPE svg PUBLIC "-//W3C//DTD SVG 1.1//EN" "http://www.w3.org/Graphics/SVG/1.1/DTD/svg11.dtd" >
<svg xmlns="http://www.w3.org/2000/svg">
<metadata></metadata>
<defs>
<font id="master_of_magicregular" horiz-adv-x="1792" >
<font-face units-per-em="2048" ascent="2048" descent="0" />
<missing-glyph horiz-adv-x="768" />
<glyph horiz-adv-x="0" />
<glyph horiz-adv-x="682" />
<glyph unicode=" "  horiz-adv-x="768" />
<glyph unicode="&#x09;" horiz-adv-x="768" />
<glyph unicode="&#xa0;" horiz-adv-x="768" />
<glyph unicode="." horiz-adv-x="768" d="M0 768v1280h512v-1280h-512z" />
<glyph unicode="0" horiz-adv-x="2048" d="M0 0v768h512v-256h768v256h512v-768h-1792zM0 1280v768h1792v-768h-512v256h-768v-256h-512z" />
<glyph unicode="1" horiz-adv-x="768" d="M0 768v512h512v-512h-512z" />
<glyph unicode="2" horiz-adv-x="768" d="M0 256v512h512v-512h-512zM0 1280v512h512v-512h-512z" />
<glyph unicode="3" horiz-adv-x="768" d="M0 0v512h512v-512h-512zM0 768v512h512v-512h-512zM0 1536v512h512v-512h-512z" />
<glyph unicode="4" d="M0 768v512h512v-512h-512zM512 0v512h512v-512h-512zM512 1536v512h512v-512h-512zM1024 768v512h512v-512h-512z" />
<glyph unicode="5" d="M0 0v512h512v-512h-512zM0 1536v512h512v-512h-512zM512 768v512h512v-512h-512zM1024 0v512h512v-512h-512zM1024 1536v512h512v-512h-512z" />
<glyph unicode="6" d="M0 0v512h512v-512h-512zM0 768v512h512v-512h-512zM0 1536v512h512v-512h-512zM1024 0v512h512v-512h-512zM1024 768v512h512v-512h-512zM1024 1536v512h512v-512h-512z" />
<glyph unicode="7" d="M0 512v256h512v-256h-512zM0 1280v256h512v-256h-512zM512 0v512h512v-512h-512zM512 768v512h512v-512h-512zM512 1536v512h512v-512h-512zM1024 512v256h512v-256h-512zM1024 1280v256h512v-256h-512z" />
<glyph unicode="8" d="M0 0v512h512v-512h-512zM0 768v512h512v-512h-512zM0 1536v512h512v-512h-512zM512 512v256h512v-256h-512zM512 1280v256h512v-256h-512zM1024 0v512h512v-512h-512zM1024 768v512h512v-512h-512zM1024 1536v512h512v-512h-512z" />
<glyph unicode="9" d="M0 256v1536h1536v-1536h-1536zM256 512h1024v1024h-1024v-1024z" />
<glyph unicode=":" horiz-adv-x="768" d="M0 256v512h512v-512h-512zM0 1280v512h512v-512h-512z" />
<glyph unicode=";" horiz-adv-x="768" d="M0 0v256h256v-256h-256zM0 512v512h512v-768h-256v256h-256zM0 1280v512h512v-512h-512z" />
<glyph unicode="=" d="M0 256v512h1536v-512h-1536zM0 1024v512h1536v-512h-1536z" />
<glyph unicode="A" horiz-adv-x="2560" d="M0 0v1280h512v-768h1280v768h512v-1280h-2304zM768 1536v512h512v-512h-512z" />
<glyph unicode="B" horiz-adv-x="2304" d="M0 0v512h2048v-512h-2048zM0 768v1280h2048v-1280h-2048zM512 1280h1024v256h-1024v-256z" />
<glyph unicode="C" horiz-adv-x="2048" d="M0 768v512h1280v768h512v-2048h-512v768h-1280z" />
<glyph unicode="D" horiz-adv-x="2304" d="M0 0v512h1536v256h-1536v512h1536v768h512v-2048h-2048z" />
<glyph unicode="E" horiz-adv-x="2304" d="M0 768v1280h2048v-1280h-512v768h-1024v-768h-512zM768 0v512h512v-512h-512z" />
<glyph unicode="F" horiz-adv-x="2304" d="M0 0v1280h2048v-512h-1536v-256h1536v-512h-2048zM0 1536v512h2048v-512h-2048z" />
<glyph unicode="G" horiz-adv-x="2304" d="M0 0v1280h1536v768h512v-1280h-1536v-768h-512z" />
<glyph unicode="H" horiz-adv-x="2560" d="M0 0v512h768v256h-768v512h768v256h-768v512h2304v-512h-768v-256h768v-512h-768v-256h768v-512h-2304z" />
<glyph unicode="I" d="M0 0v512h1536v-512h-1536zM0 1536v512h1536v-512h-1536zM512 768v512h512v-512h-512z" />
<glyph unicode="J" horiz-adv-x="2048" d="M0 0v512h768v256h-768v512h768v768h1024v-512h-512v-1024h512v-512h-1792z" />
<glyph unicode="K" horiz-adv-x="2304" d="M0 0v2048h512v-768h1024v768h512v-2048h-2048zM512 512h1024v256h-1024v-256z" />
<glyph unicode="L" horiz-adv-x="2048" d="M0 0v512h512v256h-512v512h512v256h-512v512h1024v-768h768v-512h-768v-768h-1024z" />
<glyph unicode="M" horiz-adv-x="2560" d="M0 0v2048h512v-768h1280v768h512v-1280h-1792v-256h1792v-512h-2304z" />
<glyph unicode="N" horiz-adv-x="2304" d="M0 0v1280h1536v256h-1536v512h2048v-2048h-512v768h-1024v-768h-512z" />
<glyph unicode="O" horiz-adv-x="2304" d="M0 0v2048h1536v-512h-1024v-1024h1024v-512h-1536zM1536 768v512h512v-512h-512z" />
<glyph unicode="P" horiz-adv-x="2304" d="M0 768v512h1024v768h512v-768h512v-1280h-1280v512h768v256h-1536z" />
<glyph unicode="Q" horiz-adv-x="2304" d="M0 0v2048h2048v-2048h-512v1536h-1024v-1536h-512z" />
<glyph unicode="R" horiz-adv-x="2816" d="M0 0v512h1280v1024h-1280v512h1792v-768h768v-512h-768v-768h-1792z" />
<glyph unicode="S" d="M0 0v1280h1024v768h512v-1280h-1024v-256h1024v-512h-1536z" />
<glyph unicode="T" horiz-adv-x="2048" d="M0 1536v512h1024v-1536h768v-512h-1280v1536h-512z" />
<glyph unicode="U" horiz-adv-x="2304" d="M0 768v512h512v-512h-512zM512 0v512h1024v1024h-1024v512h1536v-2048h-1536z" />
<glyph unicode="V" horiz-adv-x="2304" d="M0 0v1280h512v-768h1024v768h512v-1280h-2048zM0 1536v512h2048v-512h-2048z" />
<glyph unicode="W" horiz-adv-x="2304" d="M0 768v1280h2048v-1280h-2048zM512 1280h1024v256h-1024v-256zM768 0v512h512v-512h-512z" />
<glyph unicode="X" horiz-adv-x="2304" d="M0 1536v512h2048v-2048h-512v1536h-1536z" />
<glyph unicode="Y" horiz-adv-x="2304" d="M0 0v1280h2048v-1280h-2048zM512 512h1024v256h-1024v-256zM512 1536v512h512v-512h-512z" />
<glyph unicode="Z" horiz-adv-x="2304" d="M0 0v512h2048v-512h-2048zM0 768v1280h512v-768h1024v768h512v-1280h-2048z" />
<glyph unicode="a" d="M0 0v1024h512v-512h512v512h512v-1024h-1536zM512 1280v512h512v-512h-512z" />
<glyph unicode="b" horiz-adv-x="1536" d="M0 0v512h1280v-512h-1280zM0 768v1280h1280v-1280h-1280zM512 1280h256v256h-256v-256z" />
<glyph unicode="c" horiz-adv-x="1536" d="M0 768v512h768v512h512v-1536h-512v512h-768z" />
<glyph unicode="d" d="M0 0v512h1024v256h-1024v512h1024v512h512v-1792h-1536z" />
<glyph unicode="e" horiz-adv-x="1536" d="M0 768v1024h1280v-1024h-512v512h-256v-512h-512zM256 0v512h512v-512h-512z" />
<glyph unicode="f" d="M0 0v1280h1536v-512h-1024v-256h1024v-512h-1536zM0 1536v512h1536v-512h-1536z" />
<glyph unicode="g" horiz-adv-x="1536" d="M0 256v1024h768v512h512v-1024h-768v-512h-512z" />
<glyph unicode="h" d="M0 0v512h512v256h-512v512h512v256h-512v512h1536v-512h-512v-256h512v-512h-512v-256h512v-512h-1536z" />
<glyph unicode="i" horiz-adv-x="1024" d="M0 0v512h768v-512h-768zM0 1536v512h768v-512h-768zM256 768v512h512v-512h-512z" />
<glyph unicode="j" horiz-adv-x="1024" d="M0 0v512h256v256h-256v512h256v768h512v-512h-256v-1024h256v-512h-768z" />
<glyph unicode="k" d="M0 0v1792h512v-512h512v512h512v-1792h-1536zM512 512h512v256h-512v-256z" />
<glyph unicode="l" horiz-adv-x="1024" d="M0 0v512h256v256h-256v512h256v256h-256v512h512v-768h256v-512h-256v-768h-512z" />
<glyph unicode="m" horiz-adv-x="2304" d="M0 0v1792h512v-512h1024v512h512v-1024h-1536v-256h1536v-512h-2048z" />
<glyph unicode="n" horiz-adv-x="2048" d="M0 0v1024h1280v256h-1280v512h1792v-1792h-512v512h-768v-512h-512z" />
<glyph unicode="o" horiz-adv-x="1536" d="M0 0v2048h1024v-512h-512v-1024h512v-512h-1024zM768 768v512h512v-512h-512z" />
<glyph unicode="p" d="M0 768v512h512v512h512v-512h512v-1280h-1024v512h512v256h-1024z" />
<glyph unicode="q" d="M0 256v1024h1536v-1024h-512v512h-512v-512h-512z" />
<glyph unicode="r" d="M0 256v512h512v512h-512v512h1024v-512h512v-512h-512v-512h-1024z" />
<glyph unicode="s" horiz-adv-x="1536" d="M0 0v1280h768v512h512v-1024h-768v-256h768v-512h-1280z" />
<glyph unicode="t" horiz-adv-x="1536" d="M0 1024v512h768v-768h512v-512h-1024v768h-256z" />
<glyph unicode="u" d="M0 768v512h512v-512h-512zM512 0v512h512v1024h-512v512h1024v-2048h-1024z" />
<glyph unicode="v" d="M0 0v1024h512v-512h512v512h512v-1024h-1536zM0 1280v512h1536v-512h-1536z" />
<glyph unicode="w" horiz-adv-x="2304" d="M0 768v1280h2048v-1280h-2048zM512 1280h1024v256h-1024v-256zM768 0v512h512v-512h-512z" />
<glyph unicode="y" horiz-adv-x="1536" d="M0 0v1280h1280v-1280h-1280zM256 1536v512h512v-512h-512zM512 512h256v256h-256v-256z" />
<glyph unicode="&#x2000;" horiz-adv-x="1024" />
<glyph unicode="&#x2001;" horiz-adv-x="2048" />
<glyph unicode="&#x2002;" horiz-adv-x="1024" />
<glyph unicode="&#x2003;" horiz-adv-x="2048" />
<glyph unicode="&#x2004;" horiz-adv-x="682" />
<glyph unicode="&#x2005;" horiz-adv-x="512" />
<glyph unicode="&#x2006;" horiz-adv-x="341" />
<glyph unicode="&#x2007;" horiz-adv-x="341" />
<glyph unicode="&#x2008;" horiz-adv-x="256" />
<glyph unicode="&#x2009;" horiz-adv-x="409" />
<glyph unicode="&#x200a;" horiz-adv-x="113" />
<glyph unicode="&#x202f;" horiz-adv-x="409" />
<glyph unicode="&#x205f;" horiz-adv-x="512" />
<glyph unicode="&#x25fc;" horiz-adv-x="1000" d="M0 0z" />
</font>
</defs>
</svg>
